<?xml version="1.0" standalone="no"?>
<!DOCTYPE svg PUBLIC "-//W3C//DTD SVG 20010904//EN"
 "http://www.w3.org/TR/2001/REC-SVG-20010904/DTD/svg10.dtd">
<svg version="1.0" xmlns="http://www.w3.org/2000/svg"
 width="200.000000pt" height="200.000000pt" viewBox="0 0 200.000000 200.000000"
 preserveAspectRatio="xMidYMid meet">
<metadata>
Created by potrace 1.11, written by Peter Selinger 2001-2013
</metadata>
<g transform="translate(0.000000,200.000000) scale(0.100000,-0.100000)"
fill="#000000" stroke="none">
<path d="M0 1000 l0 -1000 1000 0 1000 0 0 1000 0 1000 -1000 0 -1000 0 0
-1000z m926 849 c-6 -37 -5 -41 11 -34 42 17 62 16 82 -4 17 -17 21 -33 21
-91 0 -68 -1 -70 -25 -70 -23 0 -24 3 -27 68 -3 64 -4 67 -28 67 -24 0 -25 -3
-28 -67 -3 -65 -4 -68 -27 -68 l-25 0 0 120 0 120 26 0 c25 0 26 -2 20 -41z
m-444 1 c21 -26 18 -67 -8 -86 -19 -15 -18 -19 16 -70 l31 -44 -28 0 c-22 1
-34 10 -55 45 -15 25 -32 45 -38 45 -5 0 -10 -20 -10 -45 0 -41 -2 -45 -25
-45 l-25 0 0 116 0 116 61 -4 c50 -4 66 -9 81 -28z m311 -10 c3 -12 14 -20 26
-20 12 0 21 -6 21 -15 0 -9 -10 -15 -26 -15 -24 0 -25 -2 -22 -47 3 -41 6 -48
26 -51 14 -2 22 -10 22 -23 0 -15 -7 -19 -33 -19 -45 0 -57 15 -57 77 0 39 -4
54 -17 62 -17 9 -16 11 5 31 12 11 22 25 22 30 0 19 28 10 33 -10z m-116 -37
c8 -9 13 -46 13 -85 0 -61 -2 -68 -20 -68 -11 0 -20 5 -20 10 0 7 -6 7 -19 0
-23 -12 -61 -13 -78 -2 -6 4 -14 19 -18 33 -8 34 15 57 66 65 25 4 39 12 39
22 0 11 -9 13 -39 9 -29 -3 -41 -1 -45 9 -13 35 97 41 121 7z m553 7 c16 -16
20 -33 20 -90 0 -68 -1 -70 -25 -70 -23 0 -24 3 -27 68 -3 64 -4 67 -28 67
-24 0 -25 -3 -28 -67 -3 -65 -4 -68 -27 -68 -25 0 -25 1 -25 86 l0 87 28 -6
c15 -3 34 -2 42 4 24 14 49 10 70 -11z m188 4 c19 -13 22 -24 22 -90 0 -58 -3
-74 -14 -74 -8 0 -18 5 -22 11 -4 8 -9 8 -17 0 -15 -15 -70 -14 -85 1 -16 16
-15 63 2 77 8 7 30 15 50 18 51 8 49 36 -1 31 -29 -2 -39 1 -41 14 -5 28 70
37 106 12z m208 2 c17 -12 22 -12 39 0 26 19 52 17 75 -6 16 -16 20 -33 20
-90 0 -68 -1 -70 -25 -70 -24 0 -25 2 -25 65 0 49 -4 67 -15 71 -29 12 -45
-16 -45 -77 0 -56 -1 -59 -25 -59 -24 0 -25 2 -25 65 0 49 -4 67 -15 71 -29
12 -45 -16 -45 -77 0 -56 -1 -59 -25 -59 -25 0 -25 1 -25 86 l0 87 28 -6 c15
-3 34 -2 42 4 21 13 43 11 66 -5z m-824 -369 c72 -35 140 -110 168 -185 18
-45 21 -72 18 -132 -5 -90 -30 -151 -87 -213 l-41 -45 98 -158 c54 -88 101
-165 105 -171 7 -10 -24 -13 -140 -13 l-148 0 -89 145 -89 145 -48 0 -49 0 0
-145 0 -145 -130 0 -130 0 0 476 0 476 253 -4 252 -3 57 -28z m1088 -82 l0
-115 -135 0 -135 0 0 -360 0 -360 -130 0 -130 0 0 360 0 360 -135 0 -135 0 0
115 0 115 400 0 400 0 0 -115z m-1015 -1025 c0 -8 -10 -16 -22 -18 -18 -3 -23
2 -23 18 0 16 5 21 23 18 12 -2 22 -10 22 -18z m235 0 c0 -21 -33 -29 -45 -10
-9 15 4 30 26 30 12 0 19 -7 19 -20z m-522 -12 c3 -15 -4 -18 -32 -18 l-36 0
0 -95 c0 -88 -1 -95 -20 -95 -19 0 -20 7 -20 95 l0 95 -30 0 c-24 0 -30 4 -30
20 0 20 5 21 82 18 70 -3 83 -6 86 -20z m392 -18 c0 -15 7 -20 25 -20 16 0 25
-6 25 -15 0 -9 -10 -15 -26 -15 -24 0 -25 -2 -22 -52 3 -48 5 -53 26 -51 16 2
22 -2 22 -17 0 -16 -7 -20 -32 -20 -51 0 -61 12 -66 77 -3 32 -10 61 -16 66
-8 5 -6 11 5 20 8 6 18 20 22 30 9 24 37 22 37 -3z m293 -21 c51 -23 63 -104
22 -144 -26 -27 -72 -33 -105 -15 -11 6 -24 28 -31 49 -14 46 2 88 41 108 31
16 43 16 73 2z m225 -5 c19 -13 22 -24 22 -90 0 -67 -2 -74 -20 -74 -18 0 -20
7 -20 54 0 66 -7 86 -29 86 -30 0 -41 -22 -41 -82 0 -55 -1 -58 -25 -58 -25 0
-25 1 -25 85 0 78 2 85 20 85 11 0 20 -4 20 -9 0 -6 12 -3 28 5 34 18 42 18
70 -2z m-838 -48 c0 -64 19 -92 51 -76 15 9 19 22 19 70 0 57 1 60 25 60 25 0
25 -1 25 -85 0 -77 -2 -85 -19 -85 -11 0 -21 6 -24 13 -4 10 -7 10 -18 0 -18
-18 -64 -16 -83 3 -12 11 -16 35 -16 85 0 62 2 69 20 69 18 0 20 -7 20 -54z
m220 -31 c0 -84 0 -85 -25 -85 -25 0 -25 1 -25 85 0 84 0 85 25 85 25 0 25 -1
25 -85z m230 0 c0 -78 -2 -85 -20 -85 -18 0 -20 7 -20 85 0 78 2 85 20 85 18
0 20 -7 20 -85z"/>
<path d="M390 1810 c0 -25 4 -30 24 -30 28 0 42 26 25 46 -6 8 -20 14 -30 14
-14 0 -19 -7 -19 -30z"/>
<path d="M590 1715 c-10 -12 -10 -19 -1 -28 14 -14 44 2 49 27 4 21 -31 22
-48 1z"/>
<path d="M1347 1723 c-10 -10 -8 -43 2 -43 23 0 41 14 41 31 0 19 -29 27 -43
12z"/>
<path d="M500 1150 l0 -100 95 0 95 0 21 33 c26 42 21 108 -12 143 -21 22 -30
24 -111 24 l-88 0 0 -100z"/>
<path d="M1212 248 c-19 -19 -15 -76 7 -87 31 -17 53 8 49 54 -2 31 -8 41 -23
43 -11 1 -26 -3 -33 -10z"/>
</g>
</svg>
